# Blender v2.61 (sub 0) OBJ File: 'field_orig.blend'
# www.blender.org
o Cube_Cube.001
v -25.000008 0.000000 -24.999996
v -25.000008 0.000000 100.000000
v -25.000008 50.000000 100.000000
v -25.000008 50.000000 -24.999996
v 220.000000 50.000000 -24.999996
v 220.000000 50.000000 100.000000
v 220.000000 0.000000 100.000000
v 220.000000 0.000000 -24.999996
v -15.000000 0.000000 100.000000
v -15.000000 50.000000 100.000000
v 210.000000 0.000000 100.000000
v 210.000000 50.000000 100.000000
v 210.000000 0.000000 -15.000001
v 210.000000 50.000000 -15.000001
v -15.000000 50.000000 -15.000001
v -15.000000 0.000000 -15.000001
v -15.000008 50.000000 -24.999996
v 210.000000 50.000000 -24.999996
vn 1.000000 0.000000 0.000000
vn -0.000000 0.000000 -1.000000
vn -0.000000 0.000000 1.000000
vn -1.000000 0.000000 0.000000
vn -0.000000 -1.000000 0.000000
vn 0.000000 1.000000 0.000000
g Cube_Cube.001_
s off
f 2//1 1//1 4//1 3//1
f 7//1 8//1 5//1 6//1
f 1//2 4//2 5//2 8//2
f 2//2 3//2 10//2 9//2
f 7//3 6//3 12//3 11//3
f 11//4 12//4 14//4 13//4
f 9//4 10//4 15//4 16//4
f 13//3 14//3 15//3 16//3
f 3//5 4//5 17//5 10//5
f 5//6 18//6 12//6 6//6
f 14//6 18//6 17//6 15//6
