# Blender v2.60 (sub 0) OBJ File: 'pad_oriented.blend'
# www.blender.org
mtllib pad_oriented.mtl
o Plane
v -21.067846 -3.450408 45.000000
v -45.000000 -10.330135 45.000000
v -45.000000 -10.330135 -45.000000
v -21.067846 -3.450408 -45.000000
v -21.067846 -3.450408 15.000000
v -21.067846 -3.450408 -15.000000
v -0.045831 0.908298 5.000000
v -0.045831 0.908298 -5.000000
v -9.243136 -0.985567 11.562403
v -9.233593 -1.028700 -11.587332
v -45.000000 45.000000 -45.000000
v -45.000000 45.000000 45.000000
v -45.000000 -45.000000 -45.000000
v -45.000000 -45.000000 45.000000
vn 0.276279 -0.961078 0.000000
vn 0.203985 -0.978973 0.001333
vn 0.202273 -0.979329 0.000831
vn -1.000000 -0.000000 0.000000
g Plane_Plane_
usemtl Material
s off
f 1//1 2//1 5//1
f 5//1 2//1 3//1 6//1
f 6//1 3//1 4//1
f 7//2 9//2 10//2 8//2
f 9//3 5//3 6//3 10//3
f 3//4 2//4 12//4 11//4
f 2//4 3//4 13//4 14//4
